<?xml version="1.0" encoding="UTF-8" standalone="no"?>
<!-- Created with Inkscape (http://www.inkscape.org/) -->

<svg
   xmlns:dc="http://purl.org/dc/elements/1.1/"
   xmlns:cc="http://creativecommons.org/ns#"
   xmlns:rdf="http://www.w3.org/1999/02/22-rdf-syntax-ns#"
   xmlns:svg="http://www.w3.org/2000/svg"
   xmlns="http://www.w3.org/2000/svg"
   xmlns:sodipodi="http://sodipodi.sourceforge.net/DTD/sodipodi-0.dtd"
   xmlns:inkscape="http://www.inkscape.org/namespaces/inkscape"
   width="50"
   height="50"
   viewBox="0 0 50.000001 50.000001"
   id="svg2"
   version="1.1"
   inkscape:version="0.91 r13725"
   sodipodi:docname="30doj.svg"
   inkscape:export-filename="/Users/ahagen/code/30doj/icon.png"
   inkscape:export-xdpi="200"
   inkscape:export-ydpi="200">
  <defs
     id="defs4" />
  <sodipodi:namedview
     id="base"
     pagecolor="#ffffff"
     bordercolor="#666666"
     borderopacity="1.0"
     inkscape:pageopacity="0.0"
     inkscape:pageshadow="2"
     inkscape:zoom="15.08"
     inkscape:cx="9.3832891"
     inkscape:cy="25"
     inkscape:document-units="px"
     inkscape:current-layer="layer1"
     showgrid="false"
     units="px"
     inkscape:window-width="1680"
     inkscape:window-height="956"
     inkscape:window-x="0"
     inkscape:window-y="1"
     inkscape:window-maximized="1" />
  <metadata
     id="metadata7">
    <rdf:RDF>
      <cc:Work
         rdf:about="">
        <dc:format>image/svg+xml</dc:format>
        <dc:type
           rdf:resource="http://purl.org/dc/dcmitype/StillImage" />
        <dc:title />
      </cc:Work>
    </rdf:RDF>
  </metadata>
  <g
     inkscape:label="Layer 1"
     inkscape:groupmode="layer"
     id="layer1"
     transform="translate(0,-1002.3622)">
    <path
       inkscape:connector-curvature="0"
       id="path3411"
       d="m 34.741246,1036.6162 c -0.03809,-0.2499 -0.03293,-0.4717 0.01147,-0.4929 0.09863,-0.047 0.714501,-1.339 0.714501,-1.4986 0,-0.063 -0.158443,-0.1867 -0.352093,-0.2749 -0.449687,-0.2049 -0.447294,-0.4937 0.0071,-0.8511 l 0.359143,-0.2825 -0.63405,-0.5844 c -0.34873,-0.3215 -0.789898,-0.8972 -0.980369,-1.2794 -0.190476,-0.3823 -0.465861,-0.8048 -0.611968,-0.939 -0.146111,-0.1342 -0.183672,-0.1889 -0.08348,-0.1215 0.130841,0.088 0.115117,-0.058 -0.0558,-0.5197 l -0.237976,-0.6421 0.649979,-0.6948 c 0.694759,-0.7428 1.370753,-1.9526 1.667297,-2.984 0.100222,-0.3485 0.192754,-0.6504 0.205622,-0.6708 0.01289,-0.02 0.253483,0.059 0.534695,0.1766 0.468415,0.1957 0.498476,0.2418 0.358386,0.5492 -0.115354,0.2532 -0.105661,0.4347 0.03946,0.7389 0.230311,0.4828 0.936991,0.6167 1.4569,0.2761 l 0.331105,-0.217 -0.02421,0.8757 -0.02421,0.8757 0.461341,-0.046 0.461336,-0.046 -0.0833,1.3841 c -0.14236,2.3655 -0.335384,4.4212 -0.429419,4.5734 -0.05414,0.088 -0.363952,0.1123 -0.777153,0.062 l -0.687118,-0.084 0.02213,0.5644 c 0.028,0.7152 -0.04055,0.776 -0.567357,0.5036 -0.235735,-0.1219 -0.464307,-0.2216 -0.507932,-0.2216 -0.04363,0 -0.32128,0.5228 -0.617013,1.1619 -0.512566,1.1076 -0.540935,1.1407 -0.60697,0.7076 z m -1.545414,-1.1301 c -0.175187,-0.2234 -0.170203,-0.2284 0.05317,-0.053 0.234603,0.184 0.309208,0.2996 0.193294,0.2996 -0.02923,0 -0.140156,-0.1109 -0.246466,-0.2464 z m -1.467464,-0.9155 -0.556726,-0.5986 0.59856,0.5568 c 0.55666,0.5177 0.663282,0.6404 0.556726,0.6404 -0.02303,0 -0.292361,-0.2694 -0.59856,-0.5986 z m -5.649312,0.068 c -0.08978,-0.057 -0.401167,-0.8009 -0.691964,-1.6527 -0.290797,-0.8519 -0.547445,-1.5726 -0.570318,-1.6017 -0.02288,-0.029 -0.291584,0.047 -0.597134,0.1695 l -0.555537,0.2222 -0.04988,-0.6271 c -0.03236,-0.4067 0.0069,-0.6272 0.111583,-0.6272 0.0888,0 0.301765,-0.1136 0.473257,-0.2525 l 0.311795,-0.2525 -0.80531,-0.6629 c -0.442916,-0.3647 -0.724209,-0.663 -0.625091,-0.663 0.319503,0 2.273304,1.1426 2.612772,1.5279 0.436923,0.496 0.420351,0.6692 -0.08076,0.8439 l -0.418574,0.1459 0.609372,1.7692 c 0.592192,1.7193 0.618742,1.8792 0.275792,1.661 z m 13.069004,-1.6081 c 0.06068,-0.4891 0.154436,-1.8558 0.208346,-3.037 l 0.09801,-2.1478 0.365436,-0 c 0.559663,-0 0.999211,-0.1532 0.999211,-0.3416 0,-0.093 -0.197412,-0.5343 -0.438691,-0.9798 l -0.43869,-0.8099 0.784597,0.4428 c 0.954027,0.5384 1.486159,0.5271 1.755362,-0.037 0.327941,-0.6874 -0.100653,-1.3709 -0.859609,-1.3709 -0.437743,0 -0.432811,-0.01 0.326946,-0.5036 0.424268,-0.2769 1.098319,-0.8235 1.49789,-1.2147 l 0.726498,-0.7113 0.359769,0.5699 c 0.588572,0.9324 0.933981,2.1574 0.930149,3.2988 -0.0073,2.1828 -0.636974,3.5935 -2.388806,5.3523 -0.960575,0.9644 -1.447874,1.3337 -2.267601,1.7186 -0.574255,0.2697 -1.20724,0.529 -1.406627,0.5764 l -0.362522,0.086 0.110328,-0.8892 z m -8.487321,-0.079 c -0.175182,-0.2234 -0.170203,-0.2284 0.05318,-0.053 0.234603,0.184 0.309208,0.2996 0.19329,0.2996 -0.02923,0 -0.140152,-0.1109 -0.246467,-0.2464 z m 1.155049,-2.3762 c -0.09014,-0.358 -0.133556,-0.6813 -0.09647,-0.7183 0.0371,-0.037 0.32832,0.1422 0.647193,0.3985 l 0.57977,0.4659 -0.323966,0.2492 c -0.493084,0.3795 -0.6281,0.3133 -0.806528,-0.3953 z m -12.70379,-0.018 c -0.175183,-0.2234 -0.170203,-0.2284 0.05318,-0.053 0.234598,0.184 0.309208,0.2997 0.19329,0.2997 -0.02923,0 -0.140156,-0.1109 -0.246466,-0.2465 z m 1.740826,-0.7277 c 0.09305,-0.1226 0.187103,-0.2494 0.209024,-0.2816 0.02194,-0.032 0.03984,0.068 0.03984,0.2229 0,0.1552 -0.0939,0.2817 -0.209023,0.2817 -0.168024,0 -0.175841,-0.044 -0.03985,-0.223 z m -0.808029,-0.2944 c -0.04821,-0.078 0.02729,-0.1828 0.167739,-0.233 0.140465,-0.05 0.309251,-0.1207 0.375072,-0.1568 0.06583,-0.036 0.04775,0.069 -0.04018,0.233 -0.17279,0.3228 -0.363294,0.3823 -0.502644,0.1568 z m 5.422891,-0.1721 c -1.217611,-0.7179 -1.156547,-0.6521 -0.919362,-0.9907 0.292238,-0.4173 0.270657,-0.6994 -0.08843,-1.1559 -0.251009,-0.3191 -0.382675,-0.3731 -0.760164,-0.3119 l -0.45657,0.074 0.141336,-0.5118 c 0.312889,-1.1332 0.118747,-1.7652 -1.695212,-5.5178 -0.943675,-1.9522 -1.685385,-3.5987 -1.648246,-3.6588 0.189665,-0.3068 2.406222,-0.628 3.224456,-0.4672 0.344608,0.068 0.481836,0.25 0.942647,1.2522 l 0.539324,1.1729 -0.339273,0.607 c -1.377903,2.4654 -0.737011,5.6568 1.6322,8.1278 l 0.730775,0.7622 -0.405274,0.3504 c -0.222901,0.1926 -0.389432,0.4023 -0.370065,0.4659 0.04368,0.1433 0.06503,0.1513 -0.528147,-0.1984 z m 3.908266,0.084 c -0.135555,-0.04 -0.246466,-0.1571 -0.246466,-0.2602 0,-0.1438 0.196209,-0.1698 0.839796,-0.1115 0.731671,0.066 0.944741,0.024 1.654851,-0.3302 l 0.815051,-0.4064 -0.492933,-0.039 c -0.90421,-0.072 -1.87769,-0.3182 -2.682251,-0.6793 l -0.79663,-0.3575 -0.527177,-1.4338 c -0.289949,-0.7886 -1.000959,-2.5674 -1.580023,-3.9529 l -1.052842,-2.5192 0.537907,-0.5519 c 0.622296,-0.6386 1.976496,-1.3372 2.791314,-1.4401 0.309848,-0.039 0.445309,-0.036 0.301026,0.01 -0.221707,0.066 -0.248276,0.169 -0.171582,0.6636 0.113919,0.7346 0.864409,2.3382 1.637687,3.4992 0.325472,0.4887 1.387278,1.6691 2.359569,2.623 l 1.767808,1.7344 -0.376981,0.7686 c -0.802425,1.6361 -2.251303,2.7232 -3.748236,2.8121 -0.430882,0.026 -0.894332,0.014 -1.029888,-0.026 z m -1.935372,-0.9187 c -1.067732,-0.713 -1.974358,-1.8128 -2.652399,-3.2176 -0.485115,-1.0051 -0.510002,-1.128 -0.513716,-2.5351 -0.0033,-1.2933 0.04098,-1.575 0.353709,-2.2451 l 0.357609,-0.7662 1.306684,3.2802 c 0.718676,1.804 1.278273,3.3085 1.243545,3.3432 -0.118514,0.1185 -1.219193,-1.2864 -1.671319,-2.1333 -0.24812,-0.4648 -0.58791,-1.2887 -0.755099,-1.8309 l -0.303973,-0.9859 -0.09909,0.5704 c -0.336578,1.9372 1.18717,5.0122 3.075691,6.207 0.55466,0.3509 0.948285,0.8983 0.645937,0.8983 -0.06138,0 -0.50579,-0.2632 -0.987575,-0.585 z m -10.159478,-0.084 c -0.175187,-0.2234 -0.170203,-0.2283 0.05317,-0.053 0.234602,0.184 0.309207,0.2997 0.193294,0.2997 -0.02923,0 -0.140156,-0.1109 -0.246466,-0.2465 z m 5.897962,-0.2702 c -0.331063,-0.09 -0.304755,-0.209 0.114018,-0.514 0.46832,-0.3409 0.83664,-0.2584 0.83664,0.1876 0,0.2738 -0.07678,0.3549 -0.352094,0.372 -0.193654,0.012 -0.463004,-0.01 -0.598564,-0.046 z m -18.0625139,-1.5117 c -2.1949569,-0.696 -3.3437948,-2.2136 -3.3270516,-4.395 0.02023,-2.6357 2.3458205,-4.5203 5.06595,-4.1053 0.9858315,0.1503 1.640472,0.497 2.6071963,1.3805 0.9289832,0.8491 1.7409212,2.3503 1.8712752,3.4601 0.204471,1.7406 -0.899316,3.113 -2.9409077,3.6565 -0.909175,0.242 -2.5183544,0.2436 -3.2764622,0 z m 3.8979576,-0.3585 c 1.3555923,-0.5113 2.2330013,-1.6585 2.2263543,-2.9109 -0.0033,-0.6695 -0.210176,-0.8432 -0.414959,-0.3488 -0.202098,0.4879 -1.1715744,1.4298 -1.8132099,1.7616 -1.6353505,0.8457 -4.275872,0.8245 -5.9492097,-0.048 -0.5261201,-0.2742 -0.5536558,-0.2762 -0.422179,-0.031 0.1895707,0.3543 1.0366152,1.0864 1.5969086,1.3804 1.2629745,0.6626 3.3157521,0.7468 4.7762947,0.196 z m 27.7638293,-0.2378 c -0.102619,-0.2674 0.124342,-0.6915 0.359073,-0.6709 0.08838,0.01 0.390275,0.024 0.670877,0.035 0.446123,0.018 0.487199,0.049 0.327145,0.2416 -0.203888,0.2457 -0.881118,0.6245 -1.116427,0.6245 -0.08374,0 -0.192039,-0.1037 -0.240668,-0.2304 z m -25.957835,-0.2625 c 0.181929,-0.1937 0.362465,-0.3521 0.401195,-0.3521 0.03871,0 -0.07843,0.1584 -0.260357,0.3521 -0.181929,0.1937 -0.362464,0.3521 -0.401195,0.3521 -0.03871,0 0.07843,-0.1584 0.260357,-0.3521 z m 30.314486,0.041 c -0.661553,-0.3386 -0.637343,-0.4554 0.122295,-0.5902 0.558611,-0.099 0.889599,0.1334 0.805746,0.5658 -0.06964,0.3591 -0.263949,0.3642 -0.928041,0.024 z m -29.064905,-0.076 c -0.175187,-0.2234 -0.170203,-0.2283 0.05318,-0.053 0.234598,0.184 0.309208,0.2997 0.19329,0.2997 -0.02923,0 -0.140156,-0.1109 -0.246466,-0.2465 z m -0.119183,-0.8059 c -0.384523,-0.4093 -0.375313,-0.4296 0.256795,-0.5651 0.446829,-0.096 0.466387,-0.084 0.370268,0.23 -0.205902,0.672 -0.275604,0.7092 -0.627063,0.3351 z m 0.955771,0.252 c 0.101667,-0.041 0.223142,-0.036 0.269942,0.011 0.04681,0.047 -0.03639,0.08 -0.184852,0.074 -0.164068,-0.01 -0.197441,-0.04 -0.08509,-0.085 z m -11.6520575,-2.2394 c 0.00677,-0.164 0.040129,-0.1974 0.08509,-0.085 0.040697,0.1017 0.035675,0.2232 -0.011086,0.27 -0.046809,0.047 -0.080087,-0.036 -0.07397,-0.1849 z m 8.6438124,-3.6148 -0.5567259,-0.5986 0.5985648,0.5567 c 0.5566552,0.5178 0.6632822,0.6404 0.5567262,0.6404 -0.02303,0 -0.292366,-0.2693 -0.5985651,-0.5985 z m 14.8015911,-1.3006 c -0.197469,-0.4465 -0.359035,-0.8323 -0.359035,-0.8574 0,-0.1184 0.81823,0.2595 1.170504,0.5406 l 0.395894,0.3159 -0.424164,0.4064 -0.424169,0.4063 z m -23.0340074,-0 c 0.1819288,-0.1936 0.3624694,-0.3521 0.4012004,-0.3521 0.038707,0 -0.078433,0.1585 -0.260362,0.3521 -0.181924,0.1937 -0.3624647,0.3521 -0.4011956,0.3521 -0.038707,0 0.078433,-0.1584 0.2603572,-0.3521 z m 4.9029342,-0.4483 c 0.1016669,-0.041 0.2231423,-0.036 0.2699416,0.011 0.046809,0.047 -0.036386,0.08 -0.1848472,0.074 -0.1640724,-0.01 -0.1974449,-0.04 -0.085094,-0.085 z m 22.5341342,-0.845 c 0.101667,-0.041 0.223142,-0.036 0.269942,0.011 0.04681,0.047 -0.03639,0.08 -0.184852,0.074 -0.164073,-0.01 -0.19744,-0.04 -0.08509,-0.085 z m -18.109062,-1.3122 c 0,-0.2711 0.029,-0.382 0.06441,-0.2464 0.03544,0.1355 0.03544,0.3573 0,0.4929 -0.03544,0.1355 -0.06441,0.025 -0.06441,-0.2465 z m 10.682155,-0.3638 c 0.0068,-0.1641 0.04013,-0.1975 0.08509,-0.085 0.0407,0.1017 0.03568,0.2231 -0.01109,0.2699 -0.04681,0.047 -0.08009,-0.036 -0.07397,-0.1848 z m 0.552234,-0.4634 c 0,-0.5736 0.232466,-0.6765 0.647577,-0.2865 0.362649,0.3407 0.32361,0.4131 -0.330689,0.6132 -0.279886,0.086 -0.316888,0.048 -0.316888,-0.3267 z m 0.967904,-0.546 c -0.175182,-0.2233 -0.170203,-0.2283 0.05318,-0.053 0.234598,0.184 0.309208,0.2996 0.19329,0.2996 -0.02923,0 -0.140156,-0.1109 -0.246466,-0.2465 z m -11.178682,-1.1619 c 0.140203,-0.1549 0.286604,-0.2816 0.325335,-0.2816 0.03871,0 -0.0443,0.1267 -0.184497,0.2816 -0.140204,0.155 -0.286599,0.2817 -0.32533,0.2817 -0.03871,0 0.0443,-0.1267 0.184492,-0.2817 z m 5.342998,-0.176 -0.413656,-0.4577 0.457726,0.4136 c 0.426661,0.3856 0.522458,0.5018 0.413656,0.5018 -0.02426,0 -0.230216,-0.206 -0.457726,-0.4577 z m 27.466542,0.026 c -0.14451,-0.2338 -0.01478,-0.2662 0.187391,-0.047 0.09988,0.1084 0.119467,0.1971 0.04354,0.1971 -0.07594,0 -0.179854,-0.068 -0.230912,-0.1502 z m 2.112572,-3.2393 c -0.05106,-0.083 -0.06263,-0.1804 -0.02573,-0.2173 0.03691,-0.037 0.104651,0.031 0.150517,0.1502 0.09523,0.2482 0.01407,0.2918 -0.124811,0.067 z m -21.308976,-0.9765 c 0,-0.1936 0.03198,-0.2729 0.07104,-0.176 0.03909,0.097 0.03909,0.2552 0,0.3521 -0.03909,0.097 -0.07104,0.018 -0.07104,-0.1761 z m 6.245067,-0.4225 c 0.302556,-0.3098 0.581793,-0.5633 0.620519,-0.5633 0.03871,0 -0.177125,0.2535 -0.479681,0.5633 -0.302551,0.3099 -0.581788,0.5634 -0.620519,0.5634 -0.03871,0 0.177129,-0.2535 0.479681,-0.5634 z m 12.594373,-0.1056 -0.341439,-0.3873 0.387305,0.3414 c 0.213022,0.1878 0.387309,0.3621 0.387309,0.3873 0,0.1105 -0.114051,0.021 -0.433175,-0.3414 z m -29.657629,-0.6751 c -0.04586,-0.1195 -0.04387,-0.2568 0.0043,-0.3051 0.0483,-0.048 0.08782,0.025 0.08782,0.162 0,0.1678 0.07166,0.2223 0.21857,0.1659 0.125337,-0.048 0.181867,-0.024 0.132529,0.055 -0.128127,0.2073 -0.34873,0.1685 -0.443338,-0.078 z m 24.149184,0.1211 c 0.101667,-0.041 0.223142,-0.036 0.269942,0.011 0.04681,0.047 -0.03639,0.08 -0.184852,0.074 -0.164068,-0.01 -0.19744,-0.04 -0.08509,-0.085 z m -21.944367,-2.2012 c 0,-0.024 0.205972,-0.2302 0.457721,-0.4578 l 0.457726,-0.4136 -0.413656,0.4577 c -0.385584,0.4267 -0.501791,0.5225 -0.501791,0.4137 z m 7.103472,-0.4137 -0.413656,-0.4577 0.457726,0.4136 c 0.426666,0.3856 0.522463,0.5018 0.413656,0.5018 -0.02426,0 -0.230216,-0.2059 -0.457726,-0.4577 z m -7.666826,-0.1497 c 0,-0.024 0.205972,-0.2302 0.457721,-0.4577 l 0.457726,-0.4137 -0.413656,0.4578 c -0.385584,0.4266 -0.501791,0.5224 -0.501791,0.4136 z m 3.072033,-1.883 c 0.101667,-0.041 0.223143,-0.036 0.269942,0.011 0.04681,0.047 -0.03639,0.08 -0.184852,0.074 -0.164067,-0.01 -0.19744,-0.04 -0.08509,-0.085 z"
       style="fill:#efd0d6;fill-opacity:1"
       sodipodi:nodetypes="ccscscsscsscsscsscscccccscsccsssccssssscssscscsccsccsssscsccsccsscssscscsssssccccsscscscsscsscscssscsccccsssscsscsscsscscscsscccscsscsccssscscccsscccscsscsssssssscssccccsssssccscssssssccccsccsssssccsccsssssscsccccccccccscsssssscccscscscccccccccccscsscccccsscscssccscscscsssccscccccccsccscscscscsssccssccccccccsscssscssssscssccccc" />
    <path
       inkscape:connector-curvature="0"
       id="path3409"
       d="m 38.717609,1031.707 c 0.0068,-0.1641 0.04013,-0.1975 0.08509,-0.085 0.0407,0.1017 0.03567,0.2231 -0.01113,0.2699 -0.04681,0.047 -0.08009,-0.036 -0.07397,-0.1848 z m -16.95949,-1.0094 c -0.03544,-0.058 -0.108935,-0.5241 -0.163362,-1.0357 -0.134769,-1.2667 0.08757,-1.3488 1.201868,-0.4436 0.453291,0.3683 0.827766,0.7039 0.832163,0.7458 0.0094,0.09 -1.487865,0.8392 -1.676867,0.8392 -0.07117,0 -0.158387,-0.048 -0.193802,-0.1057 z m 17.522844,-0.5398 c 0.0068,-0.1641 0.04013,-0.1975 0.08509,-0.085 0.0407,0.1016 0.03567,0.2231 -0.01113,0.2699 -0.04681,0.047 -0.08009,-0.036 -0.07397,-0.1848 z m -0.411396,-0.7629 c 0,-0.1937 0.03198,-0.2729 0.07104,-0.1761 0.03909,0.097 0.03909,0.2553 0,0.3521 -0.03909,0.097 -0.07104,0.018 -0.07104,-0.176 z m -10.103029,-1.238 c -0.16059,-0.4872 -0.223843,-0.8552 -0.140563,-0.8177 1.189426,0.5347 2.048305,0.805 2.845684,0.8956 l 0.967525,0.11 -0.79628,0.3941 c -0.669043,0.3311 -0.939146,0.3869 -1.690332,0.349 l -0.894052,-0.045 -0.291982,-0.8858 z m -10.593753,0.2341 c -0.332792,-0.1648 -0.755061,-0.4974 -0.938373,-0.7393 -0.435327,-0.5744 -5.354175,-10.6925 -5.554282,-11.4252 -0.432186,-1.5824 0.228353,-2.9765 1.744858,-3.6827 1.397886,-0.651 2.98703,-0.3239 3.891917,0.801 0.665021,0.8268 5.623098,11.2121 5.712285,11.9651 0.08654,0.7307 -0.280042,1.7643 -0.842875,2.3766 -0.878375,0.9557 -2.8182,1.2961 -4.01353,0.7045 z m 1.515482,-0.7214 c -1.772835,-2.348 -3.498321,-5.4779 -4.334758,-7.8628 -0.586161,-1.6713 -1.15973,-4.319 -1.255351,-5.795 -0.04406,-0.6797 -0.118221,-1.2354 -0.164849,-1.2349 -0.04662,5e-4 -0.260362,0.1167 -0.474963,0.2582 -0.950758,0.6269 -1.52046,2.0403 -1.240896,3.0785 0.251876,0.9354 5.037694,10.5455 5.532019,11.1085 0.513096,0.5844 1.379561,1.0383 1.99124,1.043 l 0.39949,0 -0.451932,-0.5986 z m 7.860239,0.3796 c -1.816251,-1.318 -3.164623,-4.1843 -2.841979,-6.0413 l 0.09909,-0.5704 0.303973,0.9859 c 0.416617,1.3512 1.124524,2.6306 1.930572,3.4892 0.481302,0.5126 0.762178,0.9787 0.974694,1.6173 0.1642,0.4934 0.275427,0.9202 0.247172,0.9485 -0.02824,0.028 -0.349342,-0.1649 -0.713526,-0.4292 z m 5.454032,0.219 c 0.140203,-0.1549 0.286604,-0.2817 0.325335,-0.2817 0.03871,0 -0.0443,0.1268 -0.184497,0.2817 -0.140204,0.1549 -0.286604,0.2817 -0.325335,0.2817 -0.03871,0 0.0443,-0.1268 0.184497,-0.2817 z m -6.914461,-0.1761 -0.268293,-0.3168 0.316888,0.2682 c 0.174287,0.1476 0.316883,0.2902 0.316883,0.3169 0,0.1127 -0.113345,0.029 -0.365478,-0.2683 z M 5.3982271,1026.526 c -1.1497333,-0.2923 -2.3805291,-1.0952 -2.7569227,-1.7985 -0.1314768,-0.2457 -0.1039411,-0.2437 0.422179,0.031 2.2821454,1.1895 5.5799274,0.7836 7.1420326,-0.879 0.242714,-0.2584 0.538306,-0.6599 0.656867,-0.8922 l 0.215567,-0.4226 0.0749,0.3521 c 0.15905,0.7477 0.177371,1.2511 0.0425,1.1677 -0.08132,-0.05 -0.105054,0.039 -0.05807,0.2189 0.04373,0.1671 0.02198,0.2684 -0.04824,0.225 -0.07024,-0.043 -0.127706,0.012 -0.127706,0.124 0,0.3624 -1.1375475,1.3551 -1.837675,1.6038 -0.3726461,0.1324 -0.6567346,0.2749 -0.6313072,0.3167 0.098014,0.1614 -2.4258218,0.1235 -3.0941307,-0.046 z m 27.3766249,-2.3421 c -0.977299,-0.9683 -2.043762,-2.1603 -2.369926,-2.649 -0.765977,-1.1477 -1.524516,-2.7613 -1.63581,-3.4798 -0.08533,-0.5508 -0.07408,-0.5706 0.428594,-0.7523 0.283917,-0.1027 0.534614,-0.165 0.557104,-0.1386 0.0225,0.026 0.153361,0.3968 0.290831,0.8228 0.789955,2.4481 2.739587,5.1469 4.446686,6.1553 0.353591,0.2089 0.407397,0.3133 0.346536,0.6726 -0.215022,1.2692 -0.11533,1.2996 -2.064015,-0.631 z m 9.745391,1.467 c 0.0068,-0.164 0.04013,-0.1974 0.08509,-0.085 0.0407,0.1017 0.03567,0.2232 -0.01109,0.27 -0.04681,0.047 -0.08009,-0.036 -0.07397,-0.1849 z m -18.872334,-2.535 c 0.0068,-0.1641 0.04013,-0.1975 0.08509,-0.085 0.0407,0.1016 0.03568,0.2231 -0.01113,0.2699 -0.04681,0.047 -0.08009,-0.036 -0.07397,-0.1848 z m 0.438852,-0.4108 c 0.0028,-0.2324 0.03444,-0.3104 0.07014,-0.1734 0.03572,0.137 0.03335,0.3272 -0.0052,0.4225 -0.03856,0.095 -0.06779,-0.017 -0.06492,-0.2491 z M 1.677129,1022.13 c 0.00677,-0.1641 0.040129,-0.1975 0.08509,-0.085 0.040697,0.1017 0.035675,0.2231 -0.011086,0.2699 -0.046809,0.047 -0.080087,-0.036 -0.07397,-0.1848 z m 21.97078,0 c 0.0068,-0.1641 0.04013,-0.1975 0.08509,-0.085 0.0407,0.1017 0.03568,0.2231 -0.01113,0.2699 -0.04681,0.047 -0.08009,-0.036 -0.07397,-0.1848 z m 2.031037,-3.298 c 0.140203,-0.1549 0.286604,-0.2817 0.325335,-0.2817 0.03871,0 -0.0443,0.1268 -0.184497,0.2817 -0.140203,0.1549 -0.286604,0.2817 -0.325335,0.2817 -0.03871,0 0.0443,-0.1268 0.184497,-0.2817 z m -19.3916792,-0.8004 c 0.101667,-0.041 0.2231423,-0.036 0.2699416,0.011 0.046809,0.047 -0.036386,0.08 -0.1848472,0.074 -0.1640723,-0.01 -0.1974449,-0.04 -0.085094,-0.085 z m 37.0489222,-8.178 c -0.175182,-0.2234 -0.170203,-0.2284 0.05318,-0.053 0.135556,0.1063 0.246467,0.2172 0.246467,0.2465 0,0.1159 -0.115658,0.041 -0.299643,-0.1933 z m -0.130453,-0.8451 -0.485352,-0.5281 0.528143,0.4854 c 0.491582,0.4517 0.592898,0.5709 0.485352,0.5709 -0.02355,0 -0.261201,-0.2377 -0.528143,-0.5282 z m -4.999764,-1.5967 c -0.15833,-0.2561 0.156075,-0.434 0.658658,-0.3726 l 0.475635,0.058 -0.528148,0.023 c -0.5786,0.025 -0.715416,0.2486 -0.211255,0.3457 0.316783,0.061 0.316788,0.061 0.0083,0.08 -0.169715,0.011 -0.351156,-0.05 -0.403205,-0.1339 z"
       style="fill:#fd6e8b;fill-opacity:1"
       sodipodi:nodetypes="ccccccsscsccccccsccscsscsscccsssssssscscccssccccsscssssscsssccccsccsssscssccsscccsssscssssccccccccccccsccccccccccccsscsscccccssssscsssccccsccc" />
    <path
       inkscape:connector-curvature="0"
       id="path3407"
       d="m 20.312486,1013.5621 c -1.307893,-0.4094 -2.564969,-1.6057 -3.338787,-3.1774 -0.398561,-0.8096 -0.449246,-1.0479 -0.449246,-2.1126 0,-1.067 0.04633,-1.2837 0.417769,-1.9543 0.229775,-0.4149 0.695783,-0.999 1.035573,-1.2981 2.196103,-1.9331 5.531782,-1.2035 6.807582,1.489 1.174976,2.4796 -0.227051,6.3976 -2.537036,7.0897 -0.682583,0.2045 -1.197347,0.1948 -1.935855,-0.036 z m 3.887658,-5.914 c 0,-0.8464 -0.676775,-1.9817 -1.475571,-2.4754 -0.555655,-0.3434 -1.682931,-0.5283 -1.824485,-0.2993 -0.05385,0.087 -0.01469,0.1825 0.08706,0.2118 0.101738,0.029 0.468608,0.1308 0.815268,0.2254 0.834163,0.2278 1.616656,1.0142 1.827797,1.8369 0.08873,0.3458 0.189438,0.7119 0.223796,0.8137 0.09478,0.2806 0.346139,0.053 0.346139,-0.3131 z"
       style="fill:#ffe6eb;fill-opacity:1"
       sodipodi:nodetypes="cssssssccssccsscs" />
    <path
       inkscape:connector-curvature="0"
       id="path3405"
       d="m 38.858447,1034.5256 c 0.0068,-0.164 0.04013,-0.1974 0.08509,-0.085 0.0407,0.1017 0.03567,0.2232 -0.01113,0.27 -0.04681,0.047 -0.08008,-0.036 -0.07397,-0.1849 z m -7.634354,-1.0093 c -0.175182,-0.2234 -0.170203,-0.2284 0.05318,-0.053 0.135556,0.1063 0.246466,0.2172 0.246466,0.2465 0,0.1159 -0.115658,0.041 -0.299643,-0.1933 z m 7.775193,-0.1174 c 0.0068,-0.164 0.04013,-0.1974 0.08509,-0.085 0.0407,0.1017 0.03567,0.2232 -0.01113,0.27 -0.04681,0.047 -0.08008,-0.036 -0.07397,-0.1849 z m -0.281677,-1.2675 c 0.0068,-0.1641 0.04013,-0.1975 0.08509,-0.085 0.0407,0.1016 0.03567,0.2231 -0.01113,0.2699 -0.04681,0.047 -0.08009,-0.036 -0.07397,-0.1848 z m 0.422515,-0.2817 c 0.0068,-0.1641 0.04013,-0.1974 0.08509,-0.085 0.0407,0.1017 0.03567,0.2231 -0.01113,0.2699 -0.04681,0.047 -0.08009,-0.036 -0.07397,-0.1848 z m -0.265341,-1.8192 c 0.0028,-0.2323 0.03444,-0.3104 0.07015,-0.1733 0.03572,0.137 0.03335,0.3271 -0.0052,0.4225 -0.03856,0.095 -0.0678,-0.017 -0.06493,-0.2492 z m -20.015377,-0.1525 c 0.0068,-0.1641 0.04013,-0.1975 0.08509,-0.085 0.0407,0.1016 0.03568,0.2231 -0.01113,0.2699 -0.04681,0.047 -0.08008,-0.036 -0.07397,-0.1848 z m 5.322772,-0.024 c -0.175187,-0.2234 -0.170202,-0.2284 0.05318,-0.053 0.234598,0.184 0.309203,0.2997 0.19329,0.2997 -0.02923,0 -0.140157,-0.1109 -0.246467,-0.2465 z m 5.088147,0.1056 c 0,-0.077 0.06711,-0.1408 0.149148,-0.1408 0.08203,0 0.109982,0.063 0.06211,0.1408 -0.04788,0.078 -0.114989,0.1409 -0.149148,0.1409 -0.03416,0 -0.06211,-0.063 -0.06211,-0.1409 z m 10.039798,-0.6337 c 9.48e-4,-0.3873 0.02843,-0.5291 0.06079,-0.315 0.03236,0.2141 0.03151,0.531 -0.0019,0.7042 -0.03345,0.1732 -0.05991,-0 -0.05886,-0.3892 z m 0.628702,-1.5721 c 0.09682,-0.039 0.255269,-0.039 0.352098,0 0.09683,0.039 0.01763,0.071 -0.176049,0.071 -0.193655,0 -0.272874,-0.032 -0.176049,-0.071 z m -33.3786839,-0.845 c 0.09683,-0.039 0.2552736,-0.039 0.3520986,0 0.096825,0.039 0.017624,0.071 -0.1760493,0.071 -0.19365,0 -0.2728743,-0.032 -0.1760493,-0.071 z m -3.637245,-1.4208 -0.341434,-0.3873 0.3873047,0.3414 c 0.3619957,0.3192 0.4518893,0.4332 0.3414339,0.4332 -0.025205,0 -0.1995153,-0.1743 -0.3873046,-0.3873 z m 8.7246709,-0.1408 c -0.175187,-0.2234 -0.170203,-0.2284 0.05318,-0.053 0.234598,0.184 0.309207,0.2996 0.193289,0.2996 -0.02923,0 -0.140156,-0.1109 -0.246466,-0.2464 z m 0.35668,-0.2113 -0.268297,-0.3169 0.316887,0.2683 c 0.174287,0.1476 0.316888,0.2902 0.316888,0.3169 0,0.1127 -0.113345,0.029 -0.365478,-0.2683 z m 25.408292,0.2207 c 0.101667,-0.041 0.223143,-0.036 0.269937,0.011 0.04681,0.047 -0.03639,0.08 -0.184847,0.074 -0.164072,-0.01 -0.19744,-0.04 -0.08509,-0.085 z m -25.350899,-1.4084 c 0.101667,-0.041 0.223142,-0.036 0.269942,0.011 0.04681,0.047 -0.03639,0.08 -0.184852,0.074 -0.164068,-0.01 -0.19744,-0.04 -0.08509,-0.085 z m 30.729161,-0.3795 c 0,-0.029 0.11091,-0.1401 0.246466,-0.2464 0.223379,-0.1752 0.228363,-0.1702 0.05318,0.053 -0.183985,0.2346 -0.299642,0.3093 -0.299642,0.1933 z m -19.131772,-0.9327 c 0,-0.1936 0.03198,-0.2728 0.07104,-0.176 0.03909,0.097 0.03909,0.2553 0,0.3521 -0.03909,0.097 -0.07104,0.018 -0.07104,-0.1761 z m -22.388075,-0.2112 c 0.00284,-0.2324 0.034443,-0.3104 0.070142,-0.1734 0.035722,0.1371 0.033354,0.3272 -0.00521,0.4225 -0.038565,0.095 -0.067797,-0.017 -0.064926,-0.2491 z m 22.799471,-0.2934 c 0.0068,-0.1641 0.04013,-0.1975 0.08509,-0.085 0.0407,0.1016 0.03567,0.2231 -0.01113,0.2699 -0.04681,0.047 -0.08009,-0.036 -0.07397,-0.1848 z m -14.5281295,-2.5586 -0.341434,-0.3873 0.3873047,0.3414 c 0.3619957,0.3192 0.4518938,0.4332 0.3414387,0.4332 -0.025252,0 -0.1995153,-0.1743 -0.3873094,-0.3873 z m -4.1000549,-1.5398 c 0.101667,-0.041 0.2231376,-0.036 0.2699369,0.011 0.046809,0.047 -0.036386,0.08 -0.1848473,0.074 -0.1640723,-0.01 -0.1974401,-0.04 -0.08509,-0.085 z m 0.4868112,-0.4239 c 0.1370294,-0.036 0.3271639,-0.033 0.4225155,0.01 0.095351,0.039 -0.016772,0.068 -0.2491477,0.065 -0.2323857,-0 -0.3104019,-0.034 -0.1733678,-0.07 z m 23.1740262,-0.4211 c 0.101667,-0.041 0.223142,-0.036 0.269942,0.011 0.04681,0.047 -0.03639,0.08 -0.184852,0.074 -0.164073,-0.01 -0.19744,-0.04 -0.08509,-0.085 z m 0.3192,-2.0985 c 0.0068,-0.1641 0.04013,-0.1975 0.08509,-0.085 0.0407,0.1016 0.03568,0.2231 -0.01113,0.2699 -0.04681,0.047 -0.08009,-0.036 -0.07397,-0.1848 z m 17.604792,0 c 0.0068,-0.1641 0.04013,-0.1975 0.08509,-0.085 0.0407,0.1016 0.03567,0.2231 -0.01113,0.2699 -0.04681,0.047 -0.08008,-0.036 -0.07397,-0.1848 z m -24.394115,-1.0094 c -0.175182,-0.2234 -0.170203,-0.2283 0.05318,-0.053 0.234603,0.184 0.309208,0.2997 0.19329,0.2997 -0.02923,0 -0.140151,-0.1109 -0.246466,-0.2465 z m 6.800442,-0.4577 c 0,-0.1937 0.03198,-0.2729 0.07104,-0.1761 0.03909,0.097 0.03909,0.2553 0,0.3521 -0.03909,0.097 -0.07104,0.018 -0.07104,-0.176 z m -5.796607,-0.3349 c 0,-0.029 0.11091,-0.1401 0.246466,-0.2464 0.223379,-0.1752 0.228359,-0.1702 0.05318,0.053 -0.183989,0.2346 -0.299642,0.3093 -0.299642,0.1933 z m -0.07042,-0.5101 c 0.140204,-0.155 0.286605,-0.2817 0.325336,-0.2817 0.03871,0 -0.0443,0.1267 -0.184497,0.2817 -0.140199,0.1549 -0.2866,0.2816 -0.325331,0.2816 -0.03871,0 0.0443,-0.1267 0.184492,-0.2816 z m -8.687963,-1.0821 c 0.101667,-0.041 0.223142,-0.036 0.269942,0.011 0.04681,0.047 -0.03639,0.08 -0.184852,0.074 -0.164068,-0.01 -0.19744,-0.04 -0.08509,-0.085 z m 10.34028,-3.1431 c 0,-0.2711 0.02899,-0.382 0.06441,-0.2465 0.03544,0.1356 0.03544,0.3574 0,0.493 -0.03544,0.1355 -0.06441,0.025 -0.06441,-0.2465 z m 12.334693,-3.0538 c 0.101667,-0.041 0.223138,-0.036 0.269937,0.011 0.04681,0.047 -0.03639,0.08 -0.184847,0.074 -0.164073,-0.01 -0.197441,-0.04 -0.08509,-0.085 z m 1.267542,0 c 0.101667,-0.041 0.223142,-0.036 0.269941,0.011 0.04681,0.047 -0.03639,0.08 -0.184852,0.074 -0.164067,-0.01 -0.19744,-0.04 -0.08509,-0.085 z m -18.30898,-2.8168 c 0.101667,-0.041 0.223142,-0.036 0.269941,0.011 0.04681,0.047 -0.03638,0.08 -0.184852,0.074 -0.164067,-0.01 -0.19744,-0.04 -0.08509,-0.085 z"
       style="fill:#a5b9d3"
       sodipodi:nodetypes="cccccsssscccccccccccccccccscccccccssssssssscscccccsccsscscsssssssccsscccccccccccscsssccsccscccccccccsscccccccsccccccccccccccccccsssssccssscscsssccccccscssccccccccccccccc" />
    <path
       style="fill:#e3b7dc;fill-opacity:1"
       d="m 32.010045,1034.2892 -0.556731,-0.5986 0.598565,0.5568 c 0.556659,0.5177 0.663282,0.6404 0.556726,0.6404 -0.02303,0 -0.292361,-0.2694 -0.59856,-0.5986 z"
       id="path4321" />
    <path
       style="fill:#e3b7dc;fill-opacity:1"
       d="m 38.57677,1033.9606 c 0.0068,-0.1641 0.04013,-0.1974 0.08509,-0.085 0.0407,0.1017 0.03568,0.2231 -0.01109,0.2699 -0.04681,0.047 -0.08009,-0.036 -0.07397,-0.1848 z"
       id="path4319" />
    <path
       style="fill:#e3b7dc;fill-opacity:1"
       d="m 38.717609,1032.5522 c 0.0068,-0.1641 0.04013,-0.1974 0.08509,-0.085 0.0407,0.1017 0.03567,0.2232 -0.01113,0.27 -0.04681,0.047 -0.08009,-0.036 -0.07397,-0.1849 z"
       id="path4317" />
    <path
       style="fill:#e3b7dc;fill-opacity:1"
       d="m 39.140124,1031.4255 c 0.0068,-0.1641 0.04013,-0.1974 0.08509,-0.085 0.0407,0.1017 0.03567,0.2232 -0.01113,0.2699 -0.04681,0.047 -0.08009,-0.036 -0.07397,-0.1848 z"
       id="path4315" />
    <path
       style="fill:#e3b7dc;fill-opacity:1"
       d="m 38.869567,1030.6626 c 0,-0.1936 0.03198,-0.2728 0.07104,-0.176 0.03909,0.097 0.03909,0.2552 0,0.3521 -0.03909,0.097 -0.07104,0.018 -0.07104,-0.1761 z"
       id="path4313" />
    <path
       style="fill:#e3b7dc;fill-opacity:1"
       d="m 21.546452,1029.9584 c 0,-0.1936 0.03198,-0.2728 0.07104,-0.176 0.03909,0.097 0.03909,0.2553 0,0.3521 -0.03909,0.097 -0.07104,0.018 -0.07104,-0.1761 z"
       id="path4311" />
    <path
       style="fill:#e3b7dc;fill-opacity:1"
       d="m 23.055471,1029.4303 c -0.175183,-0.2234 -0.170203,-0.2284 0.05318,-0.053 0.135556,0.1063 0.246466,0.2172 0.246466,0.2465 0,0.1159 -0.115653,0.041 -0.299642,-0.1933 z"
       id="path4309" />
    <path
       style="fill:#e3b7dc;fill-opacity:1"
       d="m 21.405613,1028.9726 c 0,-0.1937 0.03198,-0.2729 0.07104,-0.1761 0.03909,0.097 0.03909,0.2553 0,0.3521 -0.03909,0.097 -0.07104,0.018 -0.07104,-0.176 z"
       id="path4307" />
    <path
       style="fill:#e3b7dc;fill-opacity:1"
       d="m 22.285443,1028.7965 -0.268293,-0.3169 0.316888,0.2683 c 0.174286,0.1476 0.316883,0.2902 0.316883,0.3169 0,0.1127 -0.113346,0.029 -0.365478,-0.2683 z"
       id="path4305" />
    <path
       style="fill:#e3b7dc;fill-opacity:1"
       d="m 19.30795,1028.7305 c 0.214079,-0.032 0.530967,-0.032 0.704188,0 0.173225,0.033 -0.0019,0.06 -0.389243,0.059 -0.387304,-9e-4 -0.529029,-0.028 -0.314945,-0.061 z"
       id="path4303" />
    <path
       style="fill:#e3b7dc;fill-opacity:1"
       d="m 39.302519,1028.2682 c 0,-0.2711 0.029,-0.382 0.06441,-0.2465 0.03544,0.1356 0.03544,0.3574 0,0.4929 -0.03544,0.1356 -0.06441,0.025 -0.06441,-0.2464 z"
       id="path4301" />
    <path
       style="fill:#f9f0f8;fill-opacity:1"
       d="m 18.776661,1028.0055 c -0.310511,-0.141 -0.772747,-0.4936 -1.027192,-0.7834 -0.494325,-0.563 -5.280143,-10.1731 -5.532019,-11.1085 -0.279564,-1.0382 0.290138,-2.4516 1.240896,-3.0785 0.214601,-0.1415 0.428334,-0.2577 0.474963,-0.2582 0.04662,-5e-4 0.120812,0.5552 0.164849,1.2349 0.09562,1.476 0.66919,4.1237 1.255351,5.795 0.836437,2.3849 2.561923,5.5148 4.334758,7.8628 l 0.451932,0.5986 -0.39949,0 c -0.219717,0 -0.653542,-0.1185 -0.964048,-0.2596 z"
       id="path4299" />
    <path
       style="fill:#e3b7dc;fill-opacity:1"
       d="m 21.946728,1027.9335 c 0,-0.029 0.11091,-0.1401 0.246471,-0.2464 0.223374,-0.1752 0.228359,-0.1702 0.05317,0.053 -0.183985,0.2346 -0.299643,0.3092 -0.299643,0.1933 z"
       id="path4297" />
    <path
       style="fill:#e3b7dc;fill-opacity:1"
       d="m 38.497953,1026.7696 c 0.06704,-0.569 0.194953,-0.9264 0.412093,-1.1515 l 0.314874,-0.3264 0.528517,1.0057 c 0.290684,0.5532 0.506767,1.0257 0.480184,1.05 -0.02658,0.024 -0.449853,0.09 -0.940606,0.1458 l -0.892275,0.1014 z"
       id="path4295" />
    <path
       style="fill:#e3b7dc;fill-opacity:1"
       d="m 6.1464283,1026.9046 c 0.101667,-0.041 0.2231424,-0.036 0.2699416,0.011 0.046809,0.047 -0.036386,0.08 -0.1848472,0.074 -0.1640723,-0.01 -0.1974449,-0.04 -0.085094,-0.085 z"
       id="path4293" />
    <path
       style="fill:#e3b7dc;fill-opacity:1"
       d="m 7.1322977,1026.9046 c 0.101667,-0.041 0.2231424,-0.036 0.2699417,0.011 0.046809,0.047 -0.036386,0.08 -0.184852,0.074 -0.1640676,-0.01 -0.1974402,-0.04 -0.08509,-0.085 z"
       id="path4291" />
    <path
       style="fill:#e3b7dc;fill-opacity:1"
       d="m 23.390632,1025.522 c 0.0014,-0.3098 0.03042,-0.42 0.06409,-0.2448 0.03369,0.1752 0.03241,0.4287 -0.0028,0.5634 -0.03525,0.1346 -0.06281,-0.01 -0.06125,-0.3186 z"
       id="path4289" />
    <path
       style="fill:#e3b7dc;fill-opacity:1"
       d="m 22.943717,1024.8061 c 0.0068,-0.1641 0.04013,-0.1974 0.08509,-0.085 0.0407,0.1017 0.03568,0.2232 -0.01113,0.2699 -0.04681,0.047 -0.08009,-0.036 -0.07397,-0.1848 z"
       id="path4287" />
    <path
       style="fill:#e3b7dc;fill-opacity:1"
       d="m 36.746405,1024.8056 c -3.510743,-0.9439 -6.657363,-5.4852 -6.871101,-9.9166 -0.08612,-1.7857 0.141815,-2.912 0.890551,-4.4003 0.644564,-1.2812 2.272476,-2.9415 3.530429,-3.6005 1.868698,-0.979 4.029306,-1.2429 6.016324,-0.7347 1.587632,0.4061 2.669621,1.0348 3.890747,2.261 2.622376,2.6333 3.221542,6.2001 1.689417,10.057 -0.664476,1.6727 -1.385473,2.7541 -2.737214,4.1055 -2.123289,2.1227 -4.164004,2.8323 -6.409153,2.2287 z"
       id="path4285" />
    <path
       style="fill:#faf3f9;fill-opacity:1"
       d="m 45.211112,1012.4095 c -0.144619,-1.3293 -1.900256,-3.7252 -3.224873,-4.401 -0.717126,-0.3658 -0.744657,-0.3678 -0.744657,-0.053 0,0.1387 0.209597,0.3625 0.471684,0.5036 1.415676,0.7624 2.328542,2.0167 3.124603,4.2934 0.12149,0.3474 0.418655,0.074 0.373243,-0.3434 z"
       id="path4283" />
    <path
       style="fill:#faf3f9;fill-opacity:1"
       d="m 39.692359,1007.3705 c 0,-0.327 -1.29423,-0.5263 -1.478802,-0.2276 -0.171283,0.2771 0.0981,0.4225 0.782924,0.4225 0.498589,0 0.695878,-0.055 0.695878,-0.1949 z"
       id="path4281" />
    <path
       style="fill:#e3b7dc;fill-opacity:1"
       d="m 40.607806,1024.8885 c 0.04788,-0.078 0.114995,-0.1409 0.149154,-0.1409 0.03416,0 0.06211,0.063 0.06211,0.1409 0,0.077 -0.06712,0.1408 -0.149154,0.1408 -0.08203,0 -0.109981,-0.063 -0.06211,-0.1408 z"
       id="path4279" />
    <path
       style="fill:#e3b7dc;fill-opacity:1"
       d="m 11.411311,1023.4097 c 0.0028,-0.2324 0.03444,-0.3104 0.07014,-0.1734 0.03572,0.137 0.03335,0.3272 -0.0052,0.4225 -0.03857,0.095 -0.0678,-0.017 -0.06493,-0.2491 z"
       id="path4277" />
    <path
       style="fill:#e3b7dc;fill-opacity:1"
       d="m 0.23291268,1022.2584 c 0.0600981,-0.2947 0.0955126,-0.3301 0.13655558,-0.1365 0.0304636,0.1438 -0.006064,0.3229 -0.0811431,0.398 -0.0881834,0.088 -0.10781178,0 -0.0554125,-0.2615 z"
       id="path4275" />
    <path
       style="fill:#e3b7dc;fill-opacity:1"
       d="m 2.5110405,1019.2018 c 0,-0.029 0.1109102,-0.1402 0.2464662,-0.2465 0.2233792,-0.1752 0.2283633,-0.1702 0.053176,0.053 -0.183985,0.2346 -0.2996424,0.3092 -0.2996424,0.1933 z"
       id="path4273" />
    <path
       style="fill:#e3b7dc;fill-opacity:1"
       d="m 11.535814,1016.0744 c 0.0068,-0.1641 0.04013,-0.1975 0.08509,-0.085 0.0407,0.1016 0.03567,0.2231 -0.01113,0.2699 -0.04681,0.047 -0.08009,-0.036 -0.07397,-0.1848 z"
       id="path4271" />
    <path
       style="fill:#e3b7dc;fill-opacity:1"
       d="m 29.446677,1014.396 c 0.0014,-0.3098 0.03042,-0.42 0.06409,-0.2448 0.03369,0.1752 0.03241,0.4287 -0.0028,0.5634 -0.03525,0.1346 -0.06282,-0.01 -0.06125,-0.3186 z"
       id="path4269" />
    <path
       style="fill:#faf3f9;fill-opacity:1"
       d="m 47.054312,1014.326 c 0,-0.3486 0.02748,-0.4912 0.06103,-0.3169 0.03359,0.1743 0.03359,0.4595 0,0.6338 -0.03359,0.1743 -0.06103,0.032 -0.06103,-0.3169 z"
       id="path4267" />
    <path
       style="fill:#e3b7dc;fill-opacity:1"
       d="m 11.535814,1014.5255 c 0.0068,-0.164 0.04013,-0.1974 0.08509,-0.085 0.0407,0.1017 0.03567,0.2232 -0.01113,0.27 -0.04681,0.047 -0.08009,-0.036 -0.07397,-0.1849 z"
       id="path4265" />
    <path
       style="fill:#e3b7dc;fill-opacity:1"
       d="m 21.280428,1014.0876 c 0.137029,-0.036 0.327164,-0.033 0.422516,0.01 0.09535,0.038 -0.01677,0.068 -0.249148,0.065 -0.232386,0 -0.310397,-0.034 -0.173368,-0.07 z"
       id="path4263" />
    <path
       style="fill:#e3b7dc;fill-opacity:1"
       d="m 12.369725,1013.1289 c 0.181929,-0.1937 0.362465,-0.3521 0.401196,-0.3521 0.03871,0 -0.07843,0.1584 -0.260357,0.3521 -0.181929,0.1936 -0.36247,0.3521 -0.401196,0.3521 -0.03871,0 0.07843,-0.1585 0.260357,-0.3521 z"
       id="path4261" />
    <path
       style="fill:#e3b7dc;fill-opacity:1"
       d="m 17.074428,1013.0233 -0.268298,-0.3169 0.316888,0.2683 c 0.297795,0.2521 0.380999,0.3654 0.268293,0.3654 -0.02672,0 -0.169322,-0.1426 -0.316883,-0.3168 z"
       id="path4259" />
    <path
       style="fill:#e3b7dc;fill-opacity:1"
       d="m 17.703613,1012.2486 c -0.175183,-0.2233 -0.170203,-0.2283 0.05318,-0.053 0.234603,0.184 0.309208,0.2996 0.193295,0.2996 -0.02923,0 -0.140157,-0.1109 -0.246471,-0.2465 z"
       id="path4257" />
    <path
       style="fill:#e3b7dc;fill-opacity:1"
       d="m 14.589569,1012.1138 c 0.175192,-0.034 0.428699,-0.032 0.563354,0 0.134656,0.035 -0.0087,0.063 -0.318527,0.061 -0.309847,0 -0.420018,-0.03 -0.244827,-0.064 z"
       id="path4255" />
    <path
       style="fill:#e3b7dc;fill-opacity:1"
       d="m 16.069878,1008.27 c 0,-0.3486 0.02748,-0.4912 0.06104,-0.3169 0.03359,0.1743 0.03359,0.4595 0,0.6338 -0.03359,0.1743 -0.06104,0.032 -0.06104,-0.3169 z"
       id="path4253" />
    <path
       style="fill:#faf3f9;fill-opacity:1"
       d="m 38.037508,1005.497 c 0.135556,-0.035 0.357376,-0.035 0.492932,0 0.135561,0.035 0.02464,0.064 -0.246466,0.064 -0.271112,0 -0.382022,-0.029 -0.246466,-0.064 z"
       id="path4251" />
    <path
       style="fill:#e3b7dc;fill-opacity:1"
       d="m 16.454037,1004.1153 c 0.181928,-0.1937 0.362464,-0.3521 0.401195,-0.3521 0.03871,0 -0.07843,0.1584 -0.260357,0.3521 -0.181929,0.1936 -0.362469,0.352 -0.401196,0.352 -0.03871,0 0.07843,-0.1584 0.260358,-0.352 z"
       id="path4249" />
    <path
       style="fill:#e3b7dc;fill-opacity:1"
       d="m 20.371101,1003.5261 c 0.101667,-0.041 0.223143,-0.036 0.269942,0.011 0.04681,0.047 -0.03639,0.08 -0.184852,0.074 -0.164068,-0.01 -0.19744,-0.04 -0.08509,-0.085 z"
       id="path4247" />
    <path
       style="fill:#e3b7dc;fill-opacity:1"
       d="m 21.075294,1003.5261 c 0.101667,-0.041 0.223142,-0.036 0.269941,0.011 0.04681,0.047 -0.03638,0.08 -0.184852,0.074 -0.164072,-0.01 -0.19744,-0.04 -0.08509,-0.085 z"
       id="path3403" />
    <path
       inkscape:connector-curvature="0"
       id="path3401"
       d="m 22.783951,1031.0097 c -0.06861,-0.042 -0.31359,0.021 -0.544398,0.1399 -0.722333,0.3735 -0.814013,0.3042 -0.921223,-0.6969 -0.05383,-0.5027 -0.143899,-0.9424 -0.20015,-0.9772 -0.05625,-0.035 -0.253113,0.2129 -0.437477,0.5504 -0.364687,0.6676 -0.766143,0.8449 -1.300356,0.5743 -0.265042,-0.1342 -0.319488,-0.2737 -0.313301,-0.8029 0.0074,-0.6311 -9.47e-4,-0.6428 -0.563354,-0.796 -0.881241,-0.2402 -1.573514,-0.9144 -2.18253,-2.1257 l -0.543162,-1.0803 -1.316828,-0.315 c -1.628954,-0.3898 -1.64376,-0.3894 -1.751922,0.042 -0.115568,0.4604 -0.301519,0.4441 -0.835219,-0.073 l -0.4387,-0.4252 -0.447493,0.5568 c -0.589326,0.7333 -1.9415259,1.3931 -3.2546303,1.588 -2.5451321,0.3777 -4.9136747,-0.6982 -5.8832274,-2.6726 -0.3449683,-0.7025 -0.3949324,-0.966 -0.3930325,-2.0724 0.00284,-1.5946 0.3427747,-2.4323 1.3889744,-3.4218 1.0157834,-0.9607 2.0652568,-1.3431 3.4705575,-1.2648 1.8767426,0.1046 3.5818135,1.2219 4.6655363,3.0571 0.527437,0.8932 0.926013,2.4227 0.778409,2.9872 -0.07412,0.2834 -0.04074,0.2948 0.632382,0.2151 l 0.710636,-0.084 -0.08699,0.4637 -0.08698,0.4636 1.163723,0.2664 c 0.640049,0.1465 1.240433,0.2884 1.334183,0.3153 0.09375,0.027 -0.771828,-1.8724 -1.923513,-4.2207 -2.1315,-4.3461 -2.404256,-5.0169 -2.394705,-5.8892 0.01985,-1.8148 1.857844,-3.521 3.792908,-3.521 0.979436,0 2.125113,0.5375 2.701908,1.2676 0.214193,0.2711 1.599486,2.9646 3.078425,5.9856 l 2.688984,5.4927 -0.05447,1.1267 c -0.02994,0.6197 -0.106324,1.2535 -0.169696,1.4084 -0.09486,0.2319 -0.08169,0.2505 0.07451,0.1056 0.30194,-0.2801 1.08585,-0.22 1.255152,0.096 0.214629,0.401 0.177571,0.9432 -0.08223,1.203 -0.125413,0.1254 -0.204632,0.2459 -0.176045,0.2677 0.02857,0.022 0.558991,0.3125 1.178681,0.6459 0.61969,0.3334 1.808012,1.072 2.64072,1.6412 0.832704,0.5693 1.514008,0.9888 1.514008,0.9323 0,-0.056 -0.158638,-0.5782 -0.35253,-1.1594 l -0.352534,-1.0568 -0.950223,-0.4857 c -2.322349,-1.1871 -4.119081,-4.0793 -4.119081,-6.6307 0,-0.8857 0.305427,-2.0606 0.737498,-2.8368 0.333195,-0.5987 0.354624,-0.521 -0.857325,-3.1059 l -0.708163,-1.5104 -0.496931,0.2076 c -0.27331,0.1142 -0.536476,0.2077 -0.584811,0.2077 -0.04833,0 -0.06621,-0.3328 -0.03975,-0.7394 l 0.04815,-0.7394 -0.845031,-0.083 c -0.485631,-0.048 -1.144526,-0.2365 -1.549223,-0.444 -0.970036,-0.4973 -2.209009,-1.7945 -2.770383,-2.9005 -0.443314,-0.8734 -0.468898,-1.0049 -0.468898,-2.41 0,-1.3843 0.02866,-1.5378 0.418029,-2.2409 0.71408,-1.2892 1.948766,-2.1657 3.363277,-2.3875 2.220782,-0.3482 4.172812,0.7044 5.14289,2.7733 0.328311,0.7002 0.369373,0.954 0.355865,2.1999 -0.02279,2.0996 -0.691286,3.6617 -2.026284,4.7345 l -0.552917,0.4443 0.419574,0.509 c 0.378928,0.4597 0.397121,0.5255 0.187813,0.6785 -0.269809,0.1973 -0.23963,0.2905 0.85055,2.6263 l 0.64752,1.3873 0.526182,-0.5134 c 0.73892,-0.7211 2.264535,-1.4542 3.260467,-1.5669 l 0.820187,-0.093 -0.06989,-1.85 c -0.05448,-1.4423 -0.01834,-2.0518 0.164044,-2.7655 0.66468,-2.6011 2.26039,-4.5595 4.702287,-5.7711 1.16053,-0.5758 2.389583,-0.8437 3.881693,-0.8462 3.480435,-0.01 6.424437,1.8951 7.903097,5.1028 0.647192,1.404 0.833598,2.4837 0.742857,4.3027 -0.192821,3.8656 -2.551059,7.8467 -5.630081,9.5046 -0.824474,0.4439 -1.012055,0.594 -0.601294,0.4811 0.948062,-0.2605 1.181154,-0.2552 1.469629,0.033 0.40574,0.4058 0.382207,1.0696 -0.04791,1.3514 -0.305371,0.2001 -0.38947,0.2008 -0.853199,0.01 -0.282942,-0.1182 -0.704543,-0.3503 -0.936891,-0.5158 -0.232348,-0.1654 -0.449681,-0.2735 -0.482954,-0.2403 -0.03326,0.033 0.155932,0.4656 0.420468,0.9607 0.264531,0.4951 0.450108,0.9502 0.412391,1.0112 -0.03771,0.061 -0.239122,0.1118 -0.447568,0.1129 -0.994246,0.01 -0.961759,-0.07 -1.054794,2.4384 m -0.290371,-0.032 0.09662,-2.3097 -0.38152,0.096 c -0.209834,0.053 -0.429888,0.066 -0.489005,0.029 -0.05912,-0.036 -0.06871,-0.4187 -0.02132,-0.8493 0.0474,-0.4306 0.04506,-0.7829 -0.0053,-0.7829 -0.05028,0 -0.297074,0.1026 -0.548444,0.228 -0.354875,0.177 -0.531981,0.1938 -0.792362,0.075 -0.395974,-0.1804 -0.577832,-0.7598 -0.376924,-1.2007 0.130164,-0.2857 0.08861,-0.3328 -0.470603,-0.5339 l -0.613375,-0.2206 -0.228207,0.7908 c -0.445712,1.5444 -1.391471,2.9623 -2.527048,3.7884 l -0.422516,0.3074 0.704193,0.6299 0.704192,0.6298 -0.394809,0.3231 -0.394809,0.3232 m -0.679396,0.2795 c -0.391203,0.086 -0.402446,0.071 -0.633079,-0.8706 l -0.234797,-0.9582 -0.979326,0 c -0.538628,0 -0.979322,0 -0.979322,0.01 0,0 0.178015,0.5742 0.395595,1.2676 m -0.93528,0.7454 c -1.80426,-1.3313 -5.495117,-3.4354 -5.830103,-3.3238 -0.08235,0.027 0.208058,0.3556 0.645355,0.7292 0.437297,0.3736 0.79509,0.7297 0.79509,0.7914 0,0.062 -0.287338,0.2218 -0.638527,0.3559 -0.351189,0.1341 -0.620543,0.282 -0.59856,0.3285 m 9.523471,0.2901 0.469855,-0.2864 -0.610693,-0.5523 c -0.579221,-0.5238 -0.962792,-0.7025 -0.962792,-0.4485 0,0.2702 0.442153,1.5747 0.533601,1.5742 0.0551,-3e-4 0.311605,-0.1294 0.570029,-0.287 z m -9.715941,-0.6086 0.894279,-0.46 -0.842984,-0.7303 c -0.840819,-0.7284 -1.067714,-0.8273 -1.406177,-0.6124 -0.22887,0.1452 0.0549,2.2801 0.30168,2.2695 0.08741,-0 0.561349,-0.2138 1.053202,-0.4668 z m -2.418062,-0.7805 0.368629,-0.6204 -0.408288,0.082 c -1.096467,0.2201 -1.464774,0.6093 -1.008497,1.0656 0.300192,0.3002 0.665779,0.1163 1.048156,-0.5272 z m 11.652157,-0.6327 c 1.13164,-0.6632 2.067616,-1.9505 2.618922,-3.6019 0.302348,-0.9056 0.302514,-0.9128 0.02644,-1.1267 -0.152811,-0.1184 -0.604681,-0.4687 -1.004162,-0.7786 -1.408418,-1.0924 -3.067732,-3.6143 -3.741224,-5.6861 l -0.246011,-0.7568 -0.792727,0.089 c -1.009141,0.1132 -2.598464,0.8847 -3.293195,1.5986 l -0.528726,0.5432 0.755734,1.754 c 0.820224,1.9036 2.436349,6.0728 2.836327,7.317 0.136958,0.4261 0.308725,0.8502 0.381705,0.9426 0.324198,0.4102 2.079915,0.2372 2.986911,-0.2943 z m -4.088177,-1.5989 c -0.929192,-2.5945 -0.922863,-2.5778 -1.876203,-4.9548 -1.103829,-2.7522 -1.101849,-2.7485 -1.356596,-2.5371 -0.305305,0.2534 -0.765239,1.8994 -0.765239,2.7386 0,0.961 0.463715,2.464 1.070059,3.4683 0.729904,1.209 2.812738,3.0569 3.46871,3.0775 0.0563,0 -0.187027,-0.8049 -0.540731,-1.7925 z m -6.638256,0.8452 c 1.034962,-0.5795 1.654349,-1.6042 1.654349,-2.737 0,-0.7667 -0.147912,-1.1181 -2.61101,-6.2031 -1.436058,-2.9647 -2.76556,-5.6245 -2.954453,-5.9107 -1.222855,-1.8528 -4.22677,-1.7234 -5.538695,0.2386 -0.447772,0.6697 -0.468253,0.756 -0.41764,1.7605 0.05265,1.0451 0.08139,1.1141 2.697649,6.4786 2.807782,5.7572 3.143976,6.2864 4.256907,6.7001 0.829472,0.3084 2.016003,0.1752 2.912893,-0.327 z m 2.775443,-0.099 c 0.215827,-0.2601 0.143676,-0.6382 -0.158023,-0.8282 -0.179346,-0.1129 -0.351947,-0.067 -0.738436,0.1962 -0.277413,0.1889 -0.50482,0.3892 -0.50535,0.4451 -9.48e-4,0.095 0.722722,0.3506 1.07329,0.3786 0.08734,0.01 0.235176,-0.079 0.328519,-0.1917 z m 16.039091,-0.8573 c 0.02658,-0.024 -0.1895,-0.4968 -0.480184,-1.05 l -0.528517,-1.0058 -0.314874,0.3264 c -0.21714,0.2251 -0.345054,0.5826 -0.412093,1.1515 l -0.09721,0.8251 0.892275,-0.1015 c 0.490753,-0.056 0.914027,-0.1214 0.940606,-0.1457 z m -31.2922544,-0.7842 c 1.1422714,-0.4199 2.1969894,-1.4967 2.4340564,-2.4849 0.445844,-1.8585 -1.148402,-4.5511 -3.325157,-5.6161 -4.2351749,-2.0721 -8.34523589,3.0908 -5.3570598,6.7293 1.3502434,1.6441 3.9529768,2.2155 6.2481604,1.3717 z m 29.0005434,-0.6159 c 0.485617,-0.3881 0.424434,-0.4926 -0.349147,-0.5964 -0.850972,-0.1141 -1.286659,0.3561 -0.790069,0.8527 0.254956,0.2549 0.595263,0.1783 1.139216,-0.2563 z m 4.199547,-0.013 c 0.04671,-0.1218 0.01961,-0.3436 -0.06031,-0.493 -0.151275,-0.2826 -0.621632,-0.3299 -1.471681,-0.148 l -0.420857,0.09 0.632113,0.3807 c 0.718055,0.4325 1.196442,0.4942 1.320732,0.1703 z m -29.54551,-1.1561 c 0.08845,-0.4423 0.0785,-0.4534 -0.408141,-0.4534 -0.635472,0 -0.72474,0.2483 -0.266204,0.7404 0.404522,0.4341 0.541807,0.3757 0.674345,-0.287 z m 26.937129,0.046 c 1.435319,-0.3821 2.281321,-0.907 3.622482,-2.2478 1.351741,-1.3514 2.072738,-2.4328 2.737214,-4.1055 1.532125,-3.8569 0.932959,-7.4237 -1.689417,-10.0569 -1.221126,-1.2262 -2.303115,-1.855 -3.890747,-2.261 -1.987018,-0.5082 -4.147626,-0.2444 -6.016324,0.7346 -1.971531,1.0329 -3.743816,3.3466 -4.268444,5.5723 -0.497367,2.11 -0.01165,5.0141 1.226433,7.3331 2.061864,3.8618 5.293437,5.8257 8.278803,5.0312 z m -16.428579,-10.0636 c 0.05582,-0.049 -0.05037,-0.2781 -0.235958,-0.5089 -0.393639,-0.4895 -0.571342,-0.393 -0.714891,0.3882 l -0.09668,0.5261 0.47302,-0.158 c 0.260168,-0.087 0.518691,-0.1983 0.574507,-0.2474 z m -0.115355,-1.4763 c 0.795086,-0.466 1.665398,-1.7173 2.014365,-2.8962 0.134035,-0.4528 0.229784,-1.2659 0.227771,-1.9342 -0.0043,-1.3655 -0.398064,-2.3355 -1.324982,-3.2624 -0.916547,-0.9166 -1.680577,-1.2181 -3.086271,-1.2181 -1.403984,0 -2.169752,0.3015 -3.081874,1.2137 -0.928496,0.9285 -1.214062,1.6715 -1.211532,3.1523 0.0019,1.1238 0.04984,1.3624 0.422515,2.1039 0.478075,0.9513 1.534418,2.1711 2.278232,2.6308 1.305112,0.8066 2.618785,0.88 3.761776,0.2102 z m -22.95432327,8.6138 c 0.10057253,-0.6289 0.17038297,-0.7736 0.30721334,-0.6368 0.13418198,0.1342 -0.0935512,1.2301 -0.2556242,1.2301 -0.09321957,0 -0.1119715,-0.2157 -0.05158914,-0.5933 z m 0.36364917,-1.5157 c 0,-0.5564 1.6678988,-2.8817 1.9025632,-2.6525 0.054858,0.054 -0.1537867,0.4022 -0.4636626,0.7746 -0.3098712,0.3725 -0.6961099,0.9422 -0.85830131,1.2662 -0.29849591,0.5962 -0.58059929,0.8934 -0.58059929,0.6117 z m 48.3387991,-7.3544 c -0.7382,-0.329 -0.661164,-0.6265 0.08191,-0.3163 0.593922,0.248 0.809275,0.4229 0.638509,0.5187 -0.06485,0.036 -0.38903,-0.055 -0.720415,-0.2024 z m -0.45377,-2.2074 c 0,-0.1168 1.314639,-0.723 1.568004,-0.723 0.365776,0 0.0225,0.2807 -0.665088,0.5438 -0.896307,0.343 -0.902916,0.3443 -0.902916,0.1792 z m -1.267546,-1.3873 c 0,-0.2462 0.472806,-1.3074 0.582489,-1.3074 0.176263,0 0.151034,0.2027 -0.104846,0.8422 -0.196777,0.4917 -0.477643,0.7653 -0.477643,0.4652 z m -32.057317,-2.4693 c 0.178465,-0.9176 0.917347,-2.1613 1.763364,-2.9683 0.742724,-0.7084 1.140419,-0.96 1.140419,-0.7213 0,0.043 -0.367449,0.418 -0.816553,0.8338 -0.849186,0.7862 -1.425275,1.6917 -1.727291,2.7149 -0.207654,0.7036 -0.490947,0.8144 -0.359939,0.1409 z m 4.453006,-4.3062 c 0,-0.1643 1.229299,-0.3915 1.367944,-0.2528 0.140208,0.1402 0.01156,0.1957 -0.698962,0.3014 -0.43734,0.065 -0.668982,0.048 -0.668982,-0.049 z"
       style="fill:#41223c;fill-opacity:1"
       sodipodi:nodetypes="csscssccscscscssscssssscccscscssscccssscsssscsssscssccsssscsscscscscsscsssssssscsscsscccccsccscssscssccccccscsscccssscscsscsscsscsscssscsssscsscsssccssssscssssssssssccsccccsccscscsssssssssccscscsssssssssssssccscscsscssscsssssssscssssscsssssssssssssssssss" />
    <g
       id="g3430"
       transform="translate(0,1.6488723)">
      <flowRoot
         transform="matrix(3.5464191,0,0,3.5464191,-66.164443,984.70334)"
         style="font-style:normal;font-variant:normal;font-weight:normal;font-stretch:normal;font-size:12.5px;line-height:100%;font-family:Homestead;-inkscape-font-specification:'Homestead, Normal';text-align:center;letter-spacing:0px;word-spacing:0px;writing-mode:lr-tb;text-anchor:middle;fill:#41223c;fill-opacity:1;stroke:none;stroke-width:1px;stroke-linecap:butt;stroke-linejoin:miter;stroke-opacity:1"
         id="flowRoot3336"
         xml:space="preserve"><flowRegion
           id="flowRegion3338"><rect
             style="font-style:normal;font-variant:normal;font-weight:normal;font-stretch:normal;font-size:12.5px;line-height:100%;font-family:Homestead;-inkscape-font-specification:'Homestead, Normal';text-align:center;writing-mode:lr-tb;text-anchor:middle;fill:#41223c;fill-opacity:1"
             y="7.2944298"
             x="3.4482758"
             height="44.164455"
             width="45.225464"
             id="rect3340" /></flowRegion><flowPara
           id="flowPara3342">30</flowPara></flowRoot>      <g
         id="flowRoot3344"
         style="font-style:normal;font-variant:normal;font-weight:normal;font-stretch:normal;font-size:12.5px;line-height:100%;font-family:Homestead;-inkscape-font-specification:'Homestead, Normal';text-align:center;letter-spacing:0px;word-spacing:0px;writing-mode:lr-tb;text-anchor:middle;fill:#b1c595;fill-opacity:1;stroke:none;stroke-width:1px;stroke-linecap:butt;stroke-linejoin:miter;stroke-opacity:1"
         transform="matrix(3.5464191,0,0,3.5464191,-66.297069,990.53888)">
        <path
           inkscape:connector-curvature="0"
           id="path3380"
           style="fill:#b1c595;fill-opacity:1"
           d="m 28.731934,8.2176642 0,1.75 -0.875,0 0,4.3749998 q 0,0.55 -0.2125,1.025 -0.2,0.475 -0.5625,0.8375 -0.35,0.35 -0.8375,0.5625 -0.475,0.2 -1.0125,0.2 -0.55,0 -1.025,-0.2 -0.475,-0.2125 -0.8375,-0.5625 -0.35,-0.3625 -0.5625,-0.8375 -0.2,-0.475 -0.2,-1.025 l 0,-0.875 1.75,0 0,0.875 q 0,0.3625 0.25,0.625 0.2625,0.25 0.625,0.25 0.3625,0 0.6125,-0.25 0.2625,-0.2625 0.2625,-0.625 l 0,-4.3749998 -0.875,0 0,-1.75 3.5,0 z m -0.7875,0.7875 -1.925,0 0,0.175 0.875,0 0,5.1624998 q 0,0.3375 -0.1375,0.65 -0.125,0.3 -0.35,0.525 -0.225,0.225 -0.5375,0.3625 -0.3,0.125 -0.6375,0.125 -0.3375,0 -0.65,-0.125 -0.3,-0.1375 -0.525,-0.3625 -0.225,-0.225 -0.3625,-0.525 -0.125,-0.3125 -0.125,-0.65 l 0,-0.0875 -0.175,0 0,0.0875 q 0,0.375 0.1375,0.7125 0.15,0.3375 0.4,0.5875 0.25,0.25 0.5875,0.4 0.3375,0.1375 0.7125,0.1375 0.375,0 0.7125,-0.1375 0.3375,-0.15 0.5875,-0.4 0.25,-0.25 0.3875,-0.5875 0.15,-0.3375 0.15,-0.7125 l 0,-5.1624998 0.875,0 0,-0.175 z" />
      </g>
      <path
         inkscape:connector-curvature="0"
         id="path3374"
         d="m 26.927734,1019.6825 c -0.358216,0.885 -0.56753,1.8171 -0.634765,2.793 l 2.794922,0 c 0.06242,-0.6398 0.2123,-1.2546 0.453125,-1.8457 0.149081,-0.3355 0.324763,-0.6484 0.515625,-0.9473 l -3.128907,0 z m 3.890625,0 c -0.269292,0.3686 -0.506252,0.7699 -0.701171,1.2129 -0.210043,0.5041 -0.341583,1.0312 -0.402344,1.5801 l 2.824218,0 c 0.118476,-0.566 0.387337,-1.0651 0.814454,-1.4922 0.620623,-0.6206 1.359745,-0.9297 2.216796,-0.9297 l 0.02734,0 0,-0.3711 -4.779297,0 z m -7.632812,0.3985 0,5.8066 0.162109,0 c 0.258348,-0.8652 0.392578,-1.775 0.392578,-2.7324 0,-1.0793 -0.192304,-2.1015 -0.554687,-3.0742 z m 3.076172,3.0156 c -1.16e-4,0.02 -0.002,0.039 -0.002,0.059 l 0,2.7324 0.0293,0 0,10.3066 c 0.0646,1.0639 0.285986,2.0701 0.681641,3.0098 0.502409,1.1231 1.166643,2.1117 1.994141,2.9687 0.01628,0.016 0.03441,0.029 0.05078,0.045 0.03865,-0.2681 0.06641,-0.5393 0.06641,-0.8145 l 0,-5.2187 c -0.01786,-0.203 -0.0293,-0.4075 -0.0293,-0.6153 l 0,-12.414 c 0,-0.02 0.0018,-0.039 0.002,-0.059 l -2.792969,0 z m 3.441406,0 0,13.0781 c 0.05627,0.5825 0.194146,1.1495 0.414063,1.6992 0.325088,0.7093 0.753192,1.3293 1.285156,1.8613 0.328875,0.3289 0.697101,0.6135 1.09375,0.8633 l 0,-4.6972 c -0.01062,-0.1107 -0.0293,-0.2172 -0.0293,-0.3321 l 0,-12.414 c 0,-0.02 0.0055,-0.038 0.0059,-0.059 l -2.769531,0 z m -13.810547,15.2051 c -0.436216,0.2372 -0.919919,0.3691 -1.46289,0.3691 l -0.552735,0 0,2.7324 c 0,0.021 0.0018,0.04 0.002,0.061 l 0.550782,0 c 0.797944,0 1.552435,-0.1479 2.261718,-0.4434 0.738838,-0.3251 1.374287,-0.7532 1.90625,-1.2852 0.421581,-0.4216 0.764019,-0.9006 1.03711,-1.4335 l -3.742188,0 z m 13.810547,0.1191 0,2.9824 c 0,0.4461 -0.045,0.8811 -0.134766,1.3047 0.709911,0.5837 1.497919,1.0721 2.367188,1.4609 0.04033,0.017 0.08249,0.029 0.123047,0.045 0.289999,-0.8856 0.4375,-1.8227 0.4375,-2.8106 l 0,-0.078 c -0.571904,-0.3135 -1.085809,-0.6952 -1.53711,-1.1465 -0.508025,-0.508 -0.922493,-1.097 -1.255859,-1.7578 z m -9.621094,0.3633 c -0.283265,0.5145 -0.627678,0.9812 -1.041015,1.3945 -0.505689,0.5057 -1.092887,0.9193 -1.75,1.252 0.0034,0.788 0.149277,1.549 0.441406,2.2793 0.07512,0.1639 0.157968,0.3201 0.24414,0.4746 0.01467,-0.01 0.03028,-0.01 0.04492,-0.016 0.879379,-0.3833 1.661421,-0.8629 2.351563,-1.4355 -0.186774,-0.4071 -0.291016,-0.8483 -0.291016,-1.3301 l 0,-2.6191 z m -3.398437,2.9101 c -0.71691,0.256 -1.467189,0.3907 -2.253906,0.3907 l -0.521485,0 c 0.06503,0.982 0.268909,1.9132 0.617188,2.789 1.001079,-0.01 1.954445,-0.1718 2.863281,-0.4765 -0.0809,-0.1522 -0.161087,-0.3063 -0.232422,-0.4668 -0.289151,-0.7098 -0.440692,-1.4565 -0.472656,-2.2364 z"
         style="font-style:normal;font-variant:normal;font-weight:normal;font-stretch:normal;font-size:medium;line-height:100%;font-family:Homestead;-inkscape-font-specification:'Homestead, Normal';text-align:center;letter-spacing:0px;word-spacing:0px;writing-mode:lr-tb;text-anchor:middle;fill:#40988f;fill-opacity:1;stroke:none;stroke-width:1px;stroke-linecap:butt;stroke-linejoin:miter;stroke-opacity:1" />
    </g>
  </g>
</svg>
